<svg xmlns="http://www.w3.org/2000/svg"  viewBox="0 0 4335 4335" width="67px" height="67px" fill-rule="evenodd" clip-rule="evenodd" image-rendering="optimizeQuality" shape-rendering="geometricPrecision" text-rendering="geometricPrecision"><path fill="#4c75a3" d="M576 42 L3759 42 C4052 42 4293 282 4293 575 L4293 3758 C4293 4051 4053 4292 3759 4292 L576 4292 C283 4292 43 4052 43 3758 L43 575 C43 282 283 42 576 42 z M636 122 L3699 122 C3981 122 4212 353 4212 635 L4212 3698 C4212 3980 3981 4211 3699 4211 L636 4211 C354 4211 123 3980 123 3698 L123 635 C123 353 354 122 636 122 z"/><path fill="#4c75a3" d="M1852 1990 L2972 1990 C3069 1990 3149 2070 3149 2167 L3149 2167 C3149 2264 3069 2344 2972 2344 L1849 2344 L2154 2600 C2229 2663 2239 2775 2176 2850 L2176 2850 C2113 2925 2001 2935 1926 2872 L1248 2303 C1221 2281 1203 2252 1193 2221 C1188 2205 1185 2188 1185 2170 L1185 2170 L1185 2168 L1185 2168 L1185 2167 L1185 2166 L1185 2164 C1186 2125 1199 2086 1226 2054 L1226 2054 C1239 2038 1255 2025 1272 2015 L1930 1463 C2005 1400 2117 1410 2180 1485 L2180 1485 C2243 1560 2233 1672 2158 1735 L1853 1991 L1853 1991 z"/></svg>