<svg xmlns="http://www.w3.org/2000/svg"  viewBox="0 0 4335 4335" width="67px" height="67px" fill-rule="evenodd" clip-rule="evenodd" image-rendering="optimizeQuality" shape-rendering="geometricPrecision" text-rendering="geometricPrecision"><path fill="#4c75a3" d="M576 42 L3759 42 C4052 42 4293 282 4293 575 L4293 3758 C4293 4051 4053 4292 3759 4292 L576 4292 C283 4292 43 4052 43 3758 L43 575 C43 282 283 42 576 42 z M636 122 L3699 122 C3981 122 4212 353 4212 635 L4212 3698 C4212 3980 3981 4211 3699 4211 L636 4211 C354 4211 123 3980 123 3698 L123 635 C123 353 354 122 636 122 z"/><path fill="#4c75a3" d="M2483 1990 L1363 1990 C1266 1990 1186 2070 1186 2167 L1186 2167 C1186 2264 1266 2344 1363 2344 L2486 2344 L2181 2600 C2106 2663 2096 2775 2159 2850 L2159 2850 C2222 2925 2334 2935 2409 2872 L3087 2303 C3114 2281 3132 2252 3142 2221 C3147 2205 3150 2188 3150 2170 L3150 2170 L3150 2168 L3150 2168 L3150 2167 L3150 2166 L3150 2164 C3149 2125 3136 2086 3109 2054 L3109 2054 C3096 2038 3080 2025 3063 2015 L2405 1463 C2330 1400 2218 1410 2155 1485 L2155 1485 C2092 1560 2102 1672 2177 1735 L2482 1991 L2482 1991 z"/></svg>